ply
format ascii 1.0
comment created by SculptGL
element vertex 252
property float x
property float y
property float z
property uchar red
property uchar green
property uchar blue
element face 500
property list uchar uint vertex_indices
end_header
0.5428879998043341 0.5952139944598093 -0.006749949714727555 0 0 0
0.8231379934646614 -0.33737599575038585 -0.7594520030016249 184 86 0
-0.034092298860884745 0.6672790216163772 -0.42628699213642446 0 0 0
0.3111189791125499 -0.4996359866222283 -1.2586099807274693 3 1 0
0.39320199941040135 0.06349120484789182 -1.4530399875266937 0 0 0
0.2995160054830986 -0.0930351002731804 -1.8635300154913972 212 99 0
-0.7671669530642966 -13.055099913034976 1.0187599435702483 0 0 0
0.08925779794663202 0.3281750039246992 -1.3576400762746887 0 0 0
-0.7210699699129901 -11.89999979168971 0.7119899681764421 0 0 0
-2.594579861679374 -4.082520037284209 2.6643601473573932 0 0 0
-1.540399992110396 -12.485500177514547 0.9613930277485326 0 0 0
0.3909419926131409 -10.771799995104796 -0.5132150170359316 254 254 254
0.7644820532926399 -2.5585499282138806 -1.3856700088163776 251 237 0
0.04005269912258649 -4.90191982573148 -2.031990051801143 254 239 0
1.020429998977506 -7.028129817201615 -1.5174899665878514 255 255 255
0.03362220231039287 -3.0267998059775936 -1.7987299667267778 254 239 0
0.34779301193514944 -1.8852900675423103 -1.392619938235812 252 237 0
0.49437699432290566 -8.60284021800767 -1.5489399590390682 254 254 254
1.1893199852827183 -4.31292011893218 -1.6283400060494801 255 255 255
-0.9465760248162782 -12.553400489808645 1.1704599800087143 0 0 0
-1.2232100076009889 -12.67060008364403 1.2634300442388136 0 0 0
-0.00848269003728599 -4.60213989191063 2.736510008622524 0 0 0
0.02963170096374901 -11.072399785566066 2.872970041237053 254 254 254
-1.3332000094656693 -13.073399311401785 -1.1465400639383292 0 0 0
-2.3526101414592104 -5.852419617277067 3.781559994274331 0 0 0
1.6298600020968224 -9.011520176444332 -0.616906000336052 254 254 254
1.6490000356123928 -8.075710102266651 -0.8528950191070378 254 254 254
-1.4688899988173945 -12.827500664226731 0.9391949757502456 0 0 0
-2.2486401275611363 -5.922279989656114 2.93677987711405 0 0 0
1.074519965145826 -9.435620264979237 -1.0629800494729829 251 251 251
1.9454699943361242 -6.9782399306417515 -0.3513729700347021 254 254 254
-0.34000702276696976 -6.203499899316776 3.086900058888426 0 0 0
-3.5182599655896976 -7.215630122665685 5.576489833276737 0 0 0
1.8316899099862045 -8.145290308798117 1.033949996410555 0 0 0
-2.8829800532294367 -5.590549865517662 4.711260086151261 0 0 0
-3.7515398659302965 -7.163430106317411 5.472770124720879 0 0 0
-0.052051397551333554 -9.663040075543254 -1.257859890336915 254 254 254
1.4662498898037868 -6.178619630864135 -1.1656700522147672 254 254 254
1.7758400316824978 -9.643560567987416 0.2493170042101399 235 235 235
1.0064500534376095 -10.829499848681042 -0.40456598579241265 254 254 254
0.9646769953087196 -6.877490310324697 2.935699945104314 0 0 0
0.2673160086450871 -9.01553992336946 3.215280141484138 0 0 0
1.171129983698241 -8.404660034467705 2.7345499485375755 0 0 0
-1.8739999067876212 -5.527699693992844 -0.6651340190465806 254 254 254
1.9553099252933355 -3.9724899920690153 2.5623200578268706 0 0 0
1.7815400856630392 -5.254529736239617 1.617610039383939 0 0 0
1.4984000216619273 -3.514250126297686 1.850729903928498 0 0 0
2.096019919696943 -5.82187988861846 -0.21540599697450383 255 255 255
1.124160027984528 -4.124430151004549 2.197150020646887 0 0 0
1.5198199116424955 -5.157969943882864 2.4102599064458103 0 0 0
2.1545800860821687 -6.148729953022805 0.546387011165262 0 0 0
2.092999880474508 -4.892950115216364 1.2503500420403635 0 0 0
2.172739951949249 -3.795569937925609 1.0623400438948378 0 0 0
2.706190174376705 -6.096980183557284 3.361340120164826 0 0 0
2.2820101367467878 -5.219659821484887 1.8027700793422015 0 0 0
2.4828201088491975 -6.113620053377023 3.612110020288994 0 0 0
2.7723899515311095 -6.394330270356229 4.439469766309554 0 0 0
3.071019774274313 -6.456800098854173 5.130670011253464 0 0 0
3.489170053910522 -7.034060086046107 5.142119932592163 0 0 0
2.8779299124601567 -5.809110050378973 3.3285400750954235 0 0 0
2.3018701249355153 -5.736050062927248 3.6712101526790875 0 0 0
-1.1476499940594467 -10.055800669257398 2.236370074369988 0 0 0
1.4885300925933345 -6.237320155385182 2.5497800216332887 0 0 0
2.405169859932032 -5.5591999126397225 2.35544977919531 0 0 0
-0.6164340117028468 -11.134900437811485 3.4904302498005784 0 0 0
1.9066000103164849 -5.654830038755678 2.8672701248625265 0 0 0
2.2828901272159854 -4.708779875327678 3.564379997748602 0 0 0
3.2803900789956897 -6.09238028967076 5.405269970719889 0 0 0
0.7651590060859498 -13.109099816066143 0.09144850291433039 0 0 0
0.8172289847495654 -10.796698977975547 1.4937900825362695 206 206 206
1.8004999929043048 -6.609710104987034 2.065990021325807 0 0 0
0.6760349611863951 -10.575299705802198 2.2325000427897366 233 233 233
2.8964800289872286 -4.461190325434016 3.3387798891337117 1 0 0
2.5871601453229824 -4.097740088235898 3.201190111131832 0 0 0
2.4088499952108773 -4.371150030880177 2.0978701701815137 0 0 0
2.172570008520092 -4.022439874851642 1.757639984858888 0 0 0
2.1512401128736687 -3.733050020838019 1.9343199165052258 0 0 0
-0.22002300560920857 -10.867199493538756 3.7300601173329806 0 0 0
1.761760046569324 -3.222740038797059 1.0267100623134295 0 0 0
1.4477200013609954 -2.794349945122561 0.31205497523006054 0 0 0
1.7904599828005394 -3.1225100187945776 0.2521170114137722 2 0 0
-0.7505689842762819 -12.482600543555684 0.1888049996993925 0 0 0
-1.089719994422257 -9.777389573585362 2.811209984567118 0 0 0
-1.6184699393748716 -10.536400136489224 1.1439499747113602 0 0 0
0.7839429840363835 -11.669499808074479 0.06769199828755347 254 254 254
-0.7812589787038275 -11.696000524965786 0.05881330125113519 114 114 114
-1.4949900069915316 -11.264600162095954 0.4643550082976615 255 255 255
-0.5125390274847303 -8.863400510923466 3.1721800109416534 0 0 0
1.0582400726626664 -2.1914699195385947 -0.8580999666437682 0 0 0
-2.2365100196877634 -4.061920141550075 1.7413500471365961 0 0 0
0.6057720224089685 -1.2595300145471806 -0.9667099865818896 0 0 0
-3.6462398898923016 -6.715799939554066 5.793029961830337 0 0 0
3.355360037942718 -5.192040092475439 4.308390128901534 0 0 0
2.271430023032139 -4.680789710924472 0.4478830178168478 0 0 0
1.6361900164163767 -4.281829966211526 -1.033579973834844 0 0 0
1.2487200987866272 -2.3656097817446016 -0.5115439983865652 0 0 0
-0.9289630052548413 -11.236300659369878 1.127480048320779 0 0 0
1.154510066750752 -2.92490998221601 -1.0241600164369744 185 174 0
1.6635199471571573 -4.810830147703348 2.5440801052587623 0 0 0
0.9047109770660188 -1.261520072743511 0.7563419694450447 0 0 0
-0.5327479845287956 -10.724900562474033 1.7540999325038338 237 237 237
0.8649230233169009 -0.795618028816459 0.31262201521848043 0 0 0
1.0283800489176798 -2.4844898202414165 1.0217799827926837 0 0 0
-1.1208499840844015 -10.585000379471712 -0.5025809961647061 255 255 255
-0.20924000902543963 -0.5349079861542829 1.050930028300638 0 0 0
-1.0884399144629595 -2.370410029989712 -0.8579210100205952 4 1 0
-1.368490035385756 -11.459700172584704 1.0853799694960256 0 0 0
0.48170299867322286 -2.052779981442699 1.7497599763806098 0 0 0
0.9952780274472369 0.09760650111411896 0.06327480218774773 0 0 0
0.3212229760135282 -0.6464849637943562 1.0472399853886758 0 0 0
0.9321860133501566 -2.91107975202099 1.622009991729926 0 0 0
0.5603219939395903 -3.2826300297161897 2.1608501041789596 0 0 0
2.839129969902413 -4.690110041567111 4.0615502565803805 0 0 0
3.754179974943904 -6.701319933753799 5.281370064777207 0 0 0
3.090660005656268 -6.322050233800424 3.983840011440452 0 0 0
3.8032998182409643 -6.177209994841232 5.515829799094803 0 0 0
3.6851100115179563 -6.8928697090423485 5.8440300537233485 0 0 0
3.3374701550780714 -5.411539851210664 4.892950115216364 0 0 0
0.4219509921861466 -6.375390178381197 3.093729995862334 0 0 0
3.7449600966925884 -7.628310012761242 5.833380448970867 0 0 0
0.0905923010850646 -11.183600857973264 0.13719699883135356 254 254 254
1.517350021270076 -12.195300099281592 1.096550000199173 0 0 0
-0.4517660187640611 -12.723400062219936 -1.1107300248856238 0 0 0
1.1378900121972477 -11.514099683484918 1.0879600134838623 0 0 0
1.4700699704004074 -12.886400442258239 0.9098310216911785 0 0 0
1.4144500317486206 -11.765899977453238 0.5451449792692533 1 1 1
0.8148850038813389 -11.382600072517555 1.010009989861905 0 0 0
-0.8708000386333905 -12.969299810243115 -1.0178200256812955 0 0 0
0.34316700730718064 -11.305000187402067 0.5501239777285135 228 228 228
-1.415559961869738 -12.992999969506727 -0.01144719931970404 0 0 0
0.679871004080815 -12.8576000536357 0.17541399070513397 0 0 0
1.0834499763254661 -12.842300466407046 1.2716700300536703 0 0 0
-1.8475499665160378 -12.946399967565718 -1.434669997273927 0 0 0
0.675194050825603 -11.8216997671673 0.556167014702718 0 0 0
0.73200600158676 -12.322799228165998 0.8333129950696438 0 0 0
0.8654700072285599 -13.146700384592688 1.1303199612689097 0 0 0
-0.6116660320683739 -2.0616700180748326 1.587010039290538 0 0 0
1.159569977547133 -13.146400953902933 0.586450004937884 0 0 0
-0.31141001583535716 -2.938319963639657 2.1014399454359185 0 0 0
-0.4851160062744559 -2.282749906686179 -1.478909918442895 113 46 0
-0.23335799175440186 -1.194910092056866 -1.1419700305571698 18 7 0
-0.38347600623403366 -13.01799912955677 -1.4375599988117038 0 0 0
0.7704540167598326 -9.759210167664078 3.129090063244316 0 0 0
0.4547050080433602 -11.00870030971351 3.7152999456851323 0 0 0
-0.6528310092147175 -1.256329986656456 -0.8491740148415856 0 0 0
0.10233399877890362 0.41679702767816323 0.5825129592280784 0 0 0
-0.7278520199935002 0.4734830001321192 -0.03827630006646597 1 0 0
-0.6832829452354279 0.03354439900918495 0.5677840241457516 0 0 0
-3.2888000082397038 -5.458819626868301 4.139120143584487 0 0 0
0.6739880029026507 -10.675999787953668 2.9998700335299207 186 186 186
-1.2169200366319486 -2.329819833170161 -0.12543499564985058 1 0 0
-0.6600480319102602 -0.626191998277821 0.7227339706555654 0 0 0
-2.147360036054285 -4.094119949179816 0.5011730114139902 0 0 0
-1.635419973153573 -3.1447099972770816 -0.09314049788068642 11 6 6
-1.756299977479835 -5.331099777935015 1.9117700059252754 0 0 0
-1.34738003415212 -5.158440006031852 2.4526601727934025 0 0 0
-0.285899013009866 -0.5131549864116647 -1.2897100410812399 0 0 0
-0.7653950004025524 -0.23107300946532602 -0.8083059914767162 0 0 0
-3.391069899816131 -5.358840049814051 4.635039563735263 0 0 0
-1.032999964479462 -2.556000088746449 1.1301300649675035 0 0 0
-3.7720698578085505 -6.383619568532859 5.434810129281819 0 0 0
-1.56666994371369 -3.4205500621552973 1.6749001022459913 0 0 0
-1.5518499134490944 -2.9615200626429004 0.6650630143425766 11 6 6
-1.868980039341754 -4.226820035026503 2.6373500129966616 0 0 0
-1.4653199483509587 -4.588540014185576 2.411629911936245 0 0 0
-2.318730164380072 -4.192289731918056 3.049649835277375 0 0 0
-3.169919969742889 -6.482830203172431 5.252079798739446 0 0 0
0.23298999886741967 -11.393400493463039 3.6304099690798655 5 5 5
-3.0715798307574453 -6.6628199723098716 4.746830140312914 0 0 0
-2.1576400310491026 -4.726140250244635 1.3979100638961441 0 0 0
-2.8665600778224865 -4.668700196825675 3.283050003275531 0 0 0
1.046820011829334 -9.893750321150188 2.6744100650942753 0 0 0
-0.33686399816817064 0.23009598955444094 -1.2935098935935803 13 6 0
1.194640109054432 -10.21200000958505 1.8315499646684292 0 0 0
-3.886389908163338 -7.068669650219489 5.804560245082094 0 0 0
-0.14766601288922865 -0.14114501002052018 -1.8773899685857676 136 63 0
-1.9340499335027919 -3.3706601755954337 0.8088439621943593 0 0 0
1.1432000219268212 -13.015500204315078 -0.43965300843811567 0 0 0
0.8643920017030412 -12.446199899484403 0.09561119668844723 0 0 0
0.42460499940732094 -12.73690086361382 -1.1987499879197203 0 0 0
-2.8247198679580268 -4.435490200340956 3.475799978231373 0 0 0
0.3609130230826096 -13.014699887728861 -1.159710060470924 0 0 0
-1.604549990057738 -12.796700034562715 -0.8601319946748296 0 0 0
-2.281650021804194 -4.668209768986391 3.528069898435527 0 0 0
-0.07024929858113897 0.18646299691763898 -2.6355300358355036 0 0 0
0.09163240475368582 0.24610699988329046 -2.7856298519195843 0 0 0
-2.6943400947448986 -5.867459954772497 3.0947901126058364 0 0 0
1.172099968501583 -11.617600323264082 0.13452899879847685 254 254 254
-2.9810301187341817 -4.816279896341674 4.200870017409273 0 0 0
-0.983003983681639 -0.3513430063248244 -0.21431199474968185 1 0 0
-0.9375809947943088 -1.1227300262713302 0.048938801082714485 0 0 0
1.3580299141166334 -11.385999491524757 0.9817309904321401 0 0 0
-0.09859269762616348 -1.928570049147069 1.7933900276888302 0 0 0
1.5474600063422397 -10.449299932062807 -0.05110159783039188 253 253 253
-1.5863599884732607 -4.2193898606129325 -1.1014399675663973 254 254 253
-1.8737900576139657 -12.930100810240386 -0.7223810112257779 0 0 0
-1.4551000871849196 -12.133499586443095 0.6260309992396723 0 0 0
-2.1844499486572646 -3.8411299136013817 2.23384005016879 0 0 0
-0.6887959926408891 -4.661920073229382 -1.9349800125616354 254 239 0
1.4581999378963517 -9.189189908160246 2.2716998684285574 0 0 0
-1.2387799906501233 -4.237340014912372 -1.5691699698035069 255 244 82
1.687330053627164 -10.260500075388245 1.0586200028714943 0 0 0
-1.1341400418655303 -3.848569995648069 2.1346599640646624 0 0 0
-1.547809938439686 -12.613000407247078 0.27329400957621036 0 0 0
-1.189839998415337 -11.50609982016713 0.09368700017129117 255 255 255
-2.2556800513147155 -5.319099982958332 2.0797200743415347 0 0 0
-1.9144599283164982 -5.070319865818463 3.0673999104302614 0 0 0
-1.755920047271007 -5.097080382867056 2.405410120035116 0 0 0
0.02818820096046722 -3.811709747484978 2.604330073514472 0 0 0
-0.6517490131147489 -12.878999440319959 0.08647000327687641 0 0 0
-0.8306060095324975 -2.8609699710483385 1.6855100764660063 0 0 0
0.2502200092854316 -11.0801002181941 1.1649099165850805 254 254 254
-3.565660008904892 -6.617640064448943 4.9441098300873705 0 0 0
-1.7767599278961936 -13.08799986007164 -1.0903300018890205 0 0 0
1.5179501211037225 -12.536299915048975 0.44883298094493285 0 0 0
1.340209935107867 -13.07999999675385 -1.141950008881913 0 0 0
1.343689991240158 -12.728899899447908 -0.6671760235137667 0 0 0
-1.9265799909507386 -7.1578999957660265 -0.1280589961592674 254 254 254
-1.1502399456804004 -12.812600684867123 -1.2062299757109058 0 0 0
-1.2721200017243934 -12.557399871043478 -0.07036440171292654 0 0 0
-1.7530600438446118 -6.716080105401648 2.150479977243982 0 0 0
-2.0868999434128894 -6.506410369990517 0.8332159828287081 0 0 0
-1.5257500428809727 -6.323850120483317 2.550550064896092 0 0 0
1.0870000051166449 -12.845699885414248 -1.3302899174496277 0 0 0
-2.2123699339925595 -5.251150132498649 0.2926920199693613 255 255 255
-1.5761498973343226 -8.89544014515115 2.094069904851127 0 0 0
-1.911219994681275 -8.197620225225034 0.5273180167551996 0 0 0
-0.5192300167844756 -11.422099604058161 0.3039230101373805 254 254 254
-0.6295919677090843 -10.699000908658482 2.625119865550012 6 6 6
-1.7184899725976823 -10.016199859689376 0.978359987067142 52 52 52
-0.2561539934923431 -10.96119981400699 -0.37462601295241355 254 254 254
-0.7550879658256865 -9.466130270738493 -0.942928020542055 255 255 255
-1.1892199457094412 -10.567400019663703 1.5797100401676418 0 0 0
-1.2436500051450983 -8.175359975307735 -0.7032779937283802 255 255 255
-1.699480114372786 -9.818570100211458 -0.1015029960512284 254 254 254
0.11245500722354959 -10.845599752495913 2.023200054742286 253 253 253
-1.1922600754101416 -8.390360017335727 2.725729953367337 0 0 0
-0.8719509753471304 -12.744199486676562 -0.3467260148908716 0 0 0
1.2070600151964725 -12.335200282283912 0.16706199359365073 0 0 0
0.8167440611509021 -12.711099185281313 -0.2547770216973732 0 0 0
-3.4211500243829285 -5.974939610096198 5.416560269080594 0 0 0
-1.099609945166107 -13.178500584353381 0.7305100177891244 0 0 0
-0.9243320124088102 -7.526009847861403 2.9606198440894227 0 0 0
-3.065810010527039 -6.244420075361524 3.9535399924608665 0 0 0
0.8914430050503797 -12.943699587117315 -0.9916750203400861 0 0 0
1.8859399807535722 -12.995000210548206 -0.8686310238138871 1 0 0
1.8423700632741304 -12.909699892804682 -1.3397799163093929 2 1 1
-0.29656101950449626 -7.148669934669563 -1.642680066531971 254 254 254
0.6000890315743505 -4.582359852816914 -1.9520099954353491 244 244 244
-1.6953599150563345 -8.443929488750374 -0.09338329509468085 249 249 249
-1.28102008359566 -5.204980011750098 -1.4583400208201427 254 254 254
0.2669480157581049 -6.53553991220216 -1.8328200681916023 255 255 255
3 109 101 108
3 141 122 209
3 108 0 145
3 108 145 109
3 16 140 90
3 1 90 3
3 41 31 242
3 236 222 220
3 230 36 11
3 229 82 225
3 0 4 2
3 108 4 0
3 229 232 61
3 3 5 4
3 4 7 2
3 8 6 81
3 8 19 6
3 184 7 185
3 90 156 3
3 90 1 108
3 237 81 209
3 108 1 4
3 1 3 4
3 183 165 180
3 3 175 5
3 85 227 8
3 85 8 81
3 195 132 213
3 7 4 185
3 4 5 185
3 175 185 5
3 175 184 185
3 23 132 182
3 209 6 241
3 9 180 165
3 27 241 20
3 6 19 20
3 99 101 109
3 6 20 241
3 180 9 170
3 90 108 101
3 99 95 101
3 18 248 12
3 186 28 243
3 49 45 98
3 248 15 12
3 248 18 14
3 13 15 248
3 16 12 15
3 37 14 18
3 12 97 18
3 94 18 97
3 10 27 20
3 138 111 107
3 49 21 118
3 49 48 21
3 45 49 70
3 30 50 33
3 118 21 31
3 199 70 42
3 118 62 49
3 93 47 94
3 155 164 207
3 33 50 70
3 250 43 200
3 28 205 207
3 206 207 163
3 25 26 30
3 171 173 199
3 86 204 196
3 39 193 187
3 240 160 91
3 212 243 168
3 30 47 50
3 170 158 188
3 191 201 173
3 209 81 6
3 70 199 33
3 205 186 148
3 32 91 174
3 35 212 32
3 35 32 174
3 26 37 30
3 25 29 26
3 87 41 242
3 38 25 30
3 235 211 69
3 38 30 33
3 211 126 69
3 230 11 120
3 14 26 29
3 17 14 29
3 26 14 37
3 11 36 29
3 247 17 36
3 10 203 27
3 201 38 33
3 71 235 69
3 193 29 25
3 195 23 129
3 127 141 129
3 41 40 118
3 41 142 42
3 41 42 40
3 41 77 143
3 40 42 62
3 155 154 222
3 22 149 167
3 149 22 71
3 37 94 47
3 70 50 45
3 51 74 54
3 18 94 37
3 111 208 48
3 48 44 46
3 89 9 197
3 237 209 122
3 45 50 93
3 102 110 79
3 46 110 111
3 98 66 73
3 76 78 46
3 47 30 37
3 45 93 51
3 70 49 62
3 98 45 54
3 45 51 54
3 76 73 74
3 48 98 44
3 49 98 48
3 65 98 54
3 74 72 63
3 65 63 53
3 164 202 163
3 44 98 73
3 54 74 63
3 60 55 56
3 92 59 72
3 224 169 152
3 113 92 115
3 60 65 55
3 112 67 117
3 98 65 60
3 58 114 113
3 57 60 56
3 53 63 59
3 113 115 119
3 57 119 116
3 114 92 113
3 113 119 58
3 56 58 57
3 67 57 116
3 114 58 56
3 66 98 60
3 55 114 56
3 92 114 59
3 53 59 114
3 65 53 55
3 66 60 57
3 74 51 75
3 65 54 63
3 59 63 72
3 208 21 48
3 138 208 111
3 55 53 114
3 40 62 118
3 115 67 116
3 115 92 117
3 112 117 92
3 57 58 119
3 124 131 135
3 130 68 135
3 135 134 130
3 131 134 135
3 81 204 85
3 41 87 77
3 42 70 62
3 235 71 22
3 125 193 201
3 27 129 241
3 171 71 173
3 219 182 195
3 82 61 64
3 72 73 112
3 29 36 17
3 64 61 228
3 218 23 182
3 23 195 213
3 73 72 74
3 82 229 61
3 76 44 73
3 76 74 75
3 76 75 52
3 76 52 80
3 80 78 76
3 52 93 80
3 242 236 87
3 80 79 78
3 219 218 182
3 32 166 91
3 94 95 80
3 232 96 100
3 64 87 82
3 12 16 90
3 229 83 232
3 87 64 77
3 12 90 88
3 103 230 85
3 233 249 217
3 127 129 23
3 234 86 229
3 229 86 83
3 169 89 152
3 176 89 197
3 81 237 219
3 161 176 197
3 195 129 27
3 12 88 97
3 152 89 176
3 97 88 95
3 10 196 203
3 217 224 43
3 160 35 174
3 219 204 81
3 122 141 127
3 176 153 152
3 95 79 80
3 194 224 152
3 194 43 224
3 66 112 73
3 92 72 112
3 213 132 23
3 51 52 75
3 52 51 93
3 93 50 47
3 187 84 39
3 120 11 84
3 84 11 39
3 94 97 95
3 77 64 167
3 93 94 80
3 140 139 144
3 95 102 79
3 95 90 101
3 95 99 102
3 78 79 110
3 46 78 110
3 111 48 46
3 76 46 44
3 192 109 104
3 106 196 10
3 61 100 228
3 99 109 107
3 86 103 204
3 144 139 105
3 144 105 190
3 88 90 95
3 249 226 217
3 102 99 110
3 109 192 107
3 105 150 190
3 243 28 168
3 96 106 19
3 151 190 159
3 99 107 110
3 104 151 136
3 107 111 110
3 67 115 117
3 66 57 67
3 119 115 116
3 112 66 67
3 120 84 133
3 128 120 133
3 214 121 124
3 211 128 126
3 126 133 134
3 126 123 69
3 128 133 126
3 135 137 124
3 125 121 214
3 239 178 216
3 238 125 214
3 84 238 178
3 187 238 84
3 125 191 121
3 191 123 121
3 129 141 241
3 121 131 124
3 134 133 130
3 181 68 130
3 133 178 130
3 133 84 178
3 29 193 39
3 29 39 11
3 107 192 138
3 192 136 138
3 2 146 0
3 106 10 20
3 195 27 203
3 104 109 145
3 147 104 145
3 146 189 147
3 146 145 0
3 159 162 210
3 251 248 14
3 145 146 147
3 150 105 153
3 42 142 199
3 142 171 199
3 149 142 143
3 171 142 149
3 210 202 138
3 142 41 143
3 175 3 156
3 154 155 207
3 140 156 90
3 24 183 34
3 189 144 190
3 148 158 170
3 144 189 157
3 158 160 240
3 189 190 147
3 167 149 143
3 183 163 165
3 234 231 103
3 103 86 234
3 153 194 152
3 151 159 136
3 104 136 192
3 132 195 182
3 163 202 161
3 243 212 148
3 190 150 159
3 159 150 162
3 160 174 91
3 168 24 166
3 203 196 219
3 166 24 34
3 105 194 153
3 162 161 210
3 184 175 172
3 28 207 24
3 153 162 150
3 207 164 163
3 176 161 162
3 224 154 169
3 212 160 158
3 143 77 167
3 154 207 205
3 2 172 146
3 162 153 176
3 165 163 197
3 163 161 197
3 183 206 163
3 9 165 197
3 166 34 240
3 148 212 158
3 188 158 34
3 146 157 189
3 158 240 34
3 147 190 151
3 156 144 157
3 151 104 147
3 83 86 106
3 156 140 144
3 186 243 148
3 205 148 170
3 22 167 64
3 100 96 211
3 136 159 210
3 207 206 24
3 156 157 175
3 169 170 9
3 154 205 169
3 219 195 203
3 89 169 9
3 154 220 222
3 166 240 91
3 32 168 166
3 149 71 171
3 24 206 183
3 127 237 122
3 173 71 69
3 215 177 244
3 172 2 7
3 179 177 181
3 196 204 219
3 130 239 179
3 157 172 175
3 188 183 180
3 179 244 177
3 68 181 177
3 184 172 7
3 170 188 180
3 172 157 146
3 228 22 64
3 205 170 169
3 205 28 186
3 187 125 238
3 168 28 24
3 34 183 188
3 126 134 131
3 121 123 131
3 123 126 131
3 193 125 187
3 161 202 210
3 191 125 201
3 123 191 69
3 202 208 138
3 155 202 164
3 155 21 202
3 191 173 69
3 201 193 38
3 85 230 227
3 235 228 100
3 38 193 25
3 140 16 139
3 13 198 15
3 21 208 202
3 200 139 198
3 139 16 15
3 201 33 199
3 199 173 201
3 194 105 139
3 139 15 198
3 200 43 194
3 200 194 139
3 204 103 85
3 137 177 124
3 212 35 160
3 21 155 31
3 136 210 138
3 237 127 218
3 212 168 32
3 68 137 135
3 222 31 155
3 245 216 214
3 245 214 124
3 216 246 215
3 217 226 221
3 234 233 231
3 124 177 245
3 41 118 31
3 223 216 215
3 236 242 222
3 100 61 232
3 87 236 82
3 221 220 154
3 236 220 225
3 221 226 225
3 227 120 128
3 217 221 224
3 224 221 154
3 232 106 96
3 43 233 217
3 19 106 20
3 86 196 106
3 227 128 211
3 225 220 221
3 225 82 236
3 239 244 179
3 244 239 216
3 8 227 96
3 225 226 229
3 127 23 218
3 227 230 120
3 211 235 100
3 19 8 96
3 96 227 211
3 103 231 36
3 230 103 36
3 247 36 231
3 226 234 229
3 249 233 234
3 177 215 245
3 226 249 234
3 228 235 22
3 83 106 232
3 178 238 216
3 218 219 237
3 238 214 216
3 241 141 209
3 130 178 239
3 222 242 31
3 223 244 216
3 68 177 137
3 216 245 246
3 246 245 215
3 179 181 130
3 215 244 223
3 13 251 198
3 43 250 233
3 233 247 231
3 251 17 247
3 251 14 17
3 250 200 198
3 247 233 250
3 250 198 247
3 248 251 13
3 247 198 251
